<svg width="341" height="358" viewBox="0 0 341 358" fill="none" xmlns="http://www.w3.org/2000/svg">
<rect width="341" height="358" rx="40" fill="#D9D9D9" fill-opacity="0.4"/>
<g filter="url(#filter0_d_74_1052)">
<rect x="71" y="145" width="199" height="68" rx="10" fill="#FF4141" shape-rendering="crispEdges"/>
<path d="M133.414 182.273H120.414V180.648H133.414V182.273ZM127.875 186.438H125.898V181.219H127.875V186.438ZM132.039 179.609H122.039V178.031H132.039V179.609ZM131.883 174.359H124V178.406H122.039V172.789H131.883V174.359ZM131.586 176.953H123.453V175.414H131.586V176.953ZM139.078 176.086C139.078 177.174 138.924 178.232 138.617 179.258C138.31 180.279 137.854 181.188 137.25 181.984C136.646 182.776 135.924 183.37 135.086 183.766L133.914 182.195C134.685 181.836 135.336 181.328 135.867 180.672C136.404 180.016 136.81 179.292 137.086 178.5C137.362 177.708 137.5 176.904 137.5 176.086V174.43H139.078V176.086ZM139.5 176.086C139.5 176.836 139.63 177.586 139.891 178.336C140.156 179.081 140.549 179.766 141.07 180.391C141.596 181.01 142.234 181.492 142.984 181.836L141.875 183.398C141.042 183.018 140.328 182.448 139.734 181.688C139.141 180.927 138.69 180.062 138.383 179.094C138.076 178.12 137.922 177.117 137.922 176.086V174.43H139.5V176.086ZM142.367 175.219H134.484V173.594H142.367V175.219ZM145.469 186.438H143.469V172.203H145.469V186.438ZM147.578 179.312H145.031V177.648H147.578V179.312ZM158.766 174.461H149.672V172.867H158.766V174.461ZM161.086 179.57H148.086V177.969H161.086V179.57ZM159.547 174.008C159.547 174.826 159.521 175.557 159.469 176.203C159.422 176.849 159.302 177.586 159.109 178.414L157.109 178.359C157.25 177.792 157.352 177.258 157.414 176.758C157.482 176.253 157.523 175.81 157.539 175.43C157.555 175.044 157.562 174.57 157.562 174.008V172.867H159.547V174.008ZM159.5 186.281H149.609V181.086H159.5V186.281ZM151.578 184.68H157.516V182.633H151.578V184.68ZM171.273 183.172H169.289V180.852H171.273V183.172ZM177.555 186.438H175.578V172.203H177.555V186.438ZM166.5 182.422C168.193 182.411 169.695 182.38 171.008 182.328C172.326 182.271 173.589 182.164 174.797 182.008L174.922 183.484C173.557 183.724 172.148 183.88 170.695 183.953C169.247 184.021 167.661 184.055 165.938 184.055L165.672 182.422H166.5ZM174.594 175.367H165.953V173.805H174.594V175.367ZM170.266 175.93C170.964 175.93 171.583 176.042 172.125 176.266C172.667 176.49 173.089 176.805 173.391 177.211C173.693 177.612 173.844 178.076 173.844 178.602C173.844 179.122 173.693 179.583 173.391 179.984C173.089 180.385 172.667 180.701 172.125 180.93C171.583 181.154 170.964 181.266 170.266 181.266C169.583 181.266 168.971 181.154 168.43 180.93C167.893 180.706 167.474 180.393 167.172 179.992C166.875 179.586 166.727 179.122 166.727 178.602C166.727 178.076 166.875 177.612 167.172 177.211C167.474 176.805 167.893 176.49 168.43 176.266C168.971 176.042 169.583 175.93 170.266 175.93ZM170.266 177.438C169.948 177.438 169.664 177.484 169.414 177.578C169.164 177.667 168.969 177.799 168.828 177.977C168.688 178.148 168.617 178.357 168.617 178.602C168.617 178.841 168.688 179.047 168.828 179.219C168.969 179.391 169.164 179.523 169.414 179.617C169.664 179.706 169.948 179.75 170.266 179.75C170.599 179.75 170.893 179.706 171.148 179.617C171.404 179.529 171.599 179.398 171.734 179.227C171.87 179.049 171.938 178.841 171.938 178.602C171.938 178.357 171.87 178.148 171.734 177.977C171.599 177.799 171.404 177.667 171.148 177.578C170.893 177.484 170.599 177.438 170.266 177.438ZM171.289 174.695H169.289V172.273H171.289V174.695ZM186.633 173.328C186.633 174.234 186.396 175.078 185.922 175.859C185.448 176.635 184.763 177.286 183.867 177.812C182.977 178.339 181.93 178.69 180.727 178.867L179.945 177.266C180.977 177.141 181.867 176.875 182.617 176.469C183.367 176.057 183.932 175.578 184.312 175.031C184.693 174.479 184.883 173.911 184.883 173.328V172.633H186.633V173.328ZM186.977 173.328C186.977 173.911 187.169 174.479 187.555 175.031C187.945 175.583 188.516 176.062 189.266 176.469C190.021 176.875 190.914 177.141 191.945 177.266L191.172 178.867C189.964 178.69 188.911 178.339 188.016 177.812C187.12 177.286 186.432 176.635 185.953 175.859C185.474 175.083 185.234 174.24 185.234 173.328V172.633H186.977V173.328ZM186.875 186.438H184.898V181.211H186.875V186.438ZM192.414 181.578H179.445V179.945H192.414V181.578ZM204.484 186.438H202.516V172.203H204.484V186.438ZM206.594 179.422H204.047V177.789H206.594V179.422ZM201.547 175.938H193.195V174.336H201.547V175.938ZM197.406 176.727C198.099 176.727 198.721 176.872 199.273 177.164C199.826 177.451 200.258 177.852 200.57 178.367C200.888 178.883 201.047 179.466 201.047 180.117C201.047 180.768 200.888 181.352 200.57 181.867C200.258 182.383 199.826 182.786 199.273 183.078C198.721 183.365 198.099 183.508 197.406 183.508C196.714 183.508 196.091 183.365 195.539 183.078C194.987 182.786 194.555 182.383 194.242 181.867C193.93 181.352 193.773 180.768 193.773 180.117C193.773 179.466 193.93 178.883 194.242 178.367C194.555 177.852 194.987 177.451 195.539 177.164C196.091 176.872 196.714 176.727 197.406 176.727ZM197.406 178.352C197.078 178.352 196.781 178.424 196.516 178.57C196.255 178.711 196.049 178.917 195.898 179.188C195.753 179.453 195.68 179.763 195.68 180.117C195.68 180.477 195.753 180.789 195.898 181.055C196.049 181.32 196.255 181.526 196.516 181.672C196.781 181.812 197.078 181.883 197.406 181.883C197.745 181.883 198.044 181.812 198.305 181.672C198.565 181.526 198.766 181.32 198.906 181.055C199.052 180.789 199.125 180.477 199.125 180.117C199.125 179.763 199.052 179.453 198.906 179.188C198.766 178.917 198.565 178.711 198.305 178.57C198.044 178.424 197.745 178.352 197.406 178.352ZM198.398 174.945H196.414V172.43H198.398V174.945ZM219.047 186.438H217.023V172.203H219.047V186.438ZM214.789 173.703C214.789 175.229 214.583 176.615 214.172 177.859C213.766 179.099 213.076 180.24 212.102 181.281C211.128 182.318 209.823 183.224 208.188 184L207.141 182.406C208.51 181.76 209.609 181.034 210.438 180.227C211.266 179.419 211.867 178.513 212.242 177.508C212.617 176.503 212.805 175.352 212.805 174.055V173.703H214.789ZM213.719 175.273H207.898V173.703H213.719V175.273Z" fill="white"/>
</g>
<defs>
<filter id="filter0_d_74_1052" x="61" y="135" width="219" height="88" filterUnits="userSpaceOnUse" color-interpolation-filters="sRGB">
<feFlood flood-opacity="0" result="BackgroundImageFix"/>
<feColorMatrix in="SourceAlpha" type="matrix" values="0 0 0 0 0 0 0 0 0 0 0 0 0 0 0 0 0 0 127 0" result="hardAlpha"/>
<feOffset/>
<feGaussianBlur stdDeviation="5"/>
<feComposite in2="hardAlpha" operator="out"/>
<feColorMatrix type="matrix" values="0 0 0 0 0 0 0 0 0 0 0 0 0 0 0 0 0 0 0.1 0"/>
<feBlend mode="normal" in2="BackgroundImageFix" result="effect1_dropShadow_74_1052"/>
<feBlend mode="normal" in="SourceGraphic" in2="effect1_dropShadow_74_1052" result="shape"/>
</filter>
</defs>
</svg>
