<svg width="402" height="166" viewBox="0 0 402 166" fill="none" xmlns="http://www.w3.org/2000/svg">
<path d="M30.9414 33.6758C30.9414 34.776 30.7428 35.8112 30.3457 36.7812C29.9486 37.7448 29.3691 38.5879 28.6074 39.3105C27.8522 40.0267 26.9473 40.5671 25.8926 40.9316L24.7695 39.2129C25.6875 38.9069 26.4753 38.4674 27.1328 37.8945C27.7969 37.3216 28.2949 36.6738 28.627 35.9512C28.9655 35.222 29.1348 34.4635 29.1348 33.6758V32.0352H30.9414V33.6758ZM31.332 33.6758C31.332 34.418 31.498 35.1341 31.8301 35.8242C32.1621 36.5078 32.6536 37.1198 33.3047 37.6602C33.9557 38.194 34.737 38.6009 35.6484 38.8809L34.5352 40.5898C33.4935 40.2513 32.5983 39.7402 31.8496 39.0566C31.1009 38.3665 30.5312 37.5625 30.1406 36.6445C29.75 35.7266 29.5547 34.737 29.5547 33.6758V32.0352H31.332V33.6758ZM35.0527 33.168H25.3359V31.4297H35.0527V33.168ZM39.3301 42.9141H37.1523V30.1016H39.3301V42.9141ZM39.8281 47.4062H27.6504V45.6289H39.8281V47.4062ZM29.8379 46.4883H27.6504V41.7324H29.8379V46.4883ZM57.0156 41.1758H54.9453V30.082H57.0156V41.1758ZM55.5117 36.3809H52.4551V34.6035H55.5117V36.3809ZM53.2266 40.5801H51.1953V30.4238H53.2266V40.5801ZM50.6094 33.7051H41.8301V31.9961H50.6094V33.7051ZM46.2441 34.418C46.9863 34.418 47.6471 34.5449 48.2266 34.7988C48.806 35.0462 49.2585 35.4043 49.584 35.873C49.9095 36.3353 50.0723 36.8691 50.0723 37.4746C50.0723 38.0736 49.9095 38.6009 49.584 39.0566C49.2585 39.5124 48.806 39.8672 48.2266 40.1211C47.6471 40.375 46.9863 40.502 46.2441 40.502C45.515 40.502 44.8607 40.375 44.2812 40.1211C43.7018 39.8672 43.2493 39.5124 42.9238 39.0566C42.6048 38.6009 42.4453 38.0736 42.4453 37.4746C42.4453 36.8691 42.6048 36.3353 42.9238 35.873C43.2493 35.4043 43.6986 35.0462 44.2715 34.7988C44.8509 34.5449 45.5085 34.418 46.2441 34.418ZM46.2441 35.9805C45.8796 35.9805 45.5573 36.0423 45.2773 36.166C44.9974 36.2832 44.776 36.4557 44.6133 36.6836C44.457 36.9049 44.3789 37.1686 44.3789 37.4746C44.3789 37.7676 44.457 38.028 44.6133 38.2559C44.776 38.4772 44.9974 38.6497 45.2773 38.7734C45.5573 38.8906 45.8796 38.9492 46.2441 38.9492C46.6087 38.9492 46.931 38.8906 47.2109 38.7734C47.4974 38.6497 47.7188 38.4772 47.875 38.2559C48.0312 38.028 48.1094 37.7676 48.1094 37.4746C48.1094 37.1686 48.0312 36.9049 47.875 36.6836C47.7188 36.4557 47.4974 36.2832 47.2109 36.166C46.931 36.0423 46.6087 35.9805 46.2441 35.9805ZM47.3086 33.1289H45.1504V30.2383H47.3086V33.1289ZM51.0586 41.4004C52.3216 41.4004 53.4056 41.5241 54.3105 41.7715C55.2155 42.0124 55.9056 42.3704 56.3809 42.8457C56.8626 43.321 57.1035 43.8971 57.1035 44.5742C57.1035 45.2318 56.8626 45.7949 56.3809 46.2637C55.9056 46.7389 55.2122 47.097 54.3008 47.3379C53.3893 47.5853 52.3086 47.709 51.0586 47.709C49.8021 47.709 48.7214 47.5853 47.8164 47.3379C46.9115 47.097 46.2181 46.7389 45.7363 46.2637C45.2546 45.7949 45.0137 45.2318 45.0137 44.5742C45.0137 43.8971 45.2546 43.321 45.7363 42.8457C46.2181 42.3704 46.9115 42.0124 47.8164 41.7715C48.7214 41.5241 49.8021 41.4004 51.0586 41.4004ZM51.0586 43.041C50.2188 43.0345 49.5091 43.0898 48.9297 43.207C48.3568 43.3177 47.9206 43.4902 47.6211 43.7246C47.3281 43.9525 47.1816 44.2357 47.1816 44.5742C47.1816 44.8932 47.3281 45.1667 47.6211 45.3945C47.9206 45.6159 48.36 45.7852 48.9395 45.9023C49.5189 46.013 50.2253 46.0684 51.0586 46.0684C51.8984 46.0684 52.6048 46.013 53.1777 45.9023C53.7507 45.7852 54.1868 45.6159 54.4863 45.3945C54.7858 45.1667 54.9355 44.8932 54.9355 44.5742C54.9355 44.2292 54.7858 43.9427 54.4863 43.7148C54.1868 43.487 53.7507 43.3177 53.1777 43.207C52.6048 43.0898 51.8984 43.0345 51.0586 43.041ZM69.8281 32.6895C69.8281 33.8548 69.6393 34.9421 69.2617 35.9512C68.8841 36.9603 68.3307 37.8392 67.6016 38.5879C66.8789 39.3301 65.9935 39.89 64.9453 40.2676L63.7734 38.5586C64.6979 38.2331 65.4792 37.7741 66.1172 37.1816C66.7617 36.5827 67.2435 35.8991 67.5625 35.1309C67.888 34.3561 68.0508 33.5423 68.0508 32.6895V31.0098H69.8281V32.6895ZM70.2188 32.8945C70.2188 33.6432 70.3783 34.3594 70.6973 35.043C71.0228 35.7266 71.4948 36.332 72.1133 36.8594C72.7383 37.3867 73.4902 37.7936 74.3691 38.0801L73.207 39.7695C72.2109 39.431 71.3548 38.9232 70.6387 38.2461C69.9225 37.5625 69.3789 36.7617 69.0078 35.8438C68.6432 34.9258 68.4609 33.9427 68.4609 32.8945V31.0098H70.2188V32.8945ZM77.8945 40.6387H75.7266V30.082H77.8945V40.6387ZM80.3652 36.1758H77.2793V34.3691H80.3652V36.1758ZM72.1523 41.0293C73.3633 41.0293 74.4115 41.1595 75.2969 41.4199C76.1888 41.6803 76.8724 42.0612 77.3477 42.5625C77.8229 43.0573 78.0605 43.6562 78.0605 44.3594C78.0605 45.0625 77.8229 45.6647 77.3477 46.166C76.8724 46.6738 76.1921 47.0579 75.3066 47.3184C74.4212 47.5788 73.3698 47.709 72.1523 47.709C70.9349 47.709 69.8737 47.5788 68.9688 47.3184C68.0703 47.0579 67.377 46.6738 66.8887 46.166C66.4069 45.6647 66.166 45.0625 66.166 44.3594C66.166 43.6562 66.4069 43.0573 66.8887 42.5625C67.377 42.0612 68.0703 41.6803 68.9688 41.4199C69.8737 41.1595 70.9349 41.0293 72.1523 41.0293ZM72.1523 42.7383C71.3516 42.7383 70.6647 42.8001 70.0918 42.9238C69.5254 43.0475 69.0924 43.2331 68.793 43.4805C68.5 43.7214 68.3535 44.0143 68.3535 44.3594C68.3535 44.7174 68.5 45.0202 68.793 45.2676C69.0924 45.5085 69.5221 45.6908 70.082 45.8145C70.6484 45.9382 71.3385 46.0033 72.1523 46.0098C72.9727 46.0033 73.6628 45.9382 74.2227 45.8145C74.7826 45.6908 75.2057 45.5085 75.4922 45.2676C75.7786 45.0202 75.9219 44.7174 75.9219 44.3594C75.9219 44.0078 75.7754 43.7116 75.4824 43.4707C75.196 43.2298 74.7695 43.0475 74.2031 42.9238C73.6367 42.8001 72.9531 42.7383 72.1523 42.7383ZM83.0898 41.7617C84.5938 41.7552 85.7949 41.7292 86.6934 41.6836C87.5918 41.6315 88.513 41.5306 89.457 41.3809L89.623 43.168C88.6595 43.3307 87.6992 43.4414 86.7422 43.5C85.7917 43.5521 84.5742 43.5781 83.0898 43.5781H81.8887V41.7617H83.0898ZM89.0078 33.7246H83.959V42.4844H81.8887V32.0059H89.0078V33.7246ZM88.6953 38.3145H83.3633V36.625H88.6953V38.3145ZM96.4883 47.7188H94.3984V30.082H96.4883V47.7188ZM95.1113 38.7637H91.9766V37.0156H95.1113V38.7637ZM92.582 46.8887H90.5215V30.3848H92.582V46.8887Z" fill="black"/>
<path d="M338.805 36.8203H341.102V33.5547H342.719V42.9766H337.164V33.5547H338.805V36.8203ZM341.102 41.5781V38.2031H338.805V41.5781H341.102ZM348.914 46.375H347.242V32.2656H348.914V46.375ZM347.789 39.1484H345.273V37.7344H347.789V39.1484ZM345.742 45.7109H344.102V32.5078H345.742V45.7109ZM353.859 41.9453H360.125V40.3125H361.852V46.2109H352.148V40.3125H353.859V41.9453ZM360.125 44.8047V43.2812H353.859V44.8047H360.125ZM361.227 34.2656H352.148V32.8594H361.227V34.2656ZM363.469 39.2734H350.562V37.8828H363.469V39.2734ZM361.883 33.9609C361.883 34.7474 361.859 35.4505 361.812 36.0703C361.766 36.6901 361.646 37.4089 361.453 38.2266L359.719 38.3125C359.849 37.7292 359.945 37.1875 360.008 36.6875C360.07 36.1823 360.109 35.737 360.125 35.3516C360.141 34.9661 360.148 34.5026 360.148 33.9609V32.8594H361.883V33.9609ZM371.664 41.8203H369.953V39.3281H371.664V41.8203ZM377.25 40.1406H364.391V38.7422H377.25V40.1406ZM370.805 41.3203C371.826 41.3203 372.701 41.4193 373.43 41.6172C374.164 41.8099 374.724 42.0964 375.109 42.4766C375.5 42.8568 375.695 43.3151 375.695 43.8516C375.695 44.3828 375.5 44.8359 375.109 45.2109C374.724 45.5859 374.164 45.8724 373.43 46.0703C372.701 46.2682 371.826 46.3672 370.805 46.3672C369.779 46.3672 368.898 46.2682 368.164 46.0703C367.43 45.8724 366.865 45.5859 366.469 45.2109C366.078 44.8359 365.883 44.3828 365.883 43.8516C365.883 43.3151 366.078 42.8568 366.469 42.4766C366.859 42.0964 367.422 41.8099 368.156 41.6172C368.896 41.4193 369.779 41.3203 370.805 41.3203ZM370.805 42.6406C370.117 42.6406 369.539 42.6875 369.07 42.7812C368.607 42.875 368.255 43.0104 368.016 43.1875C367.776 43.3646 367.656 43.5859 367.656 43.8516C367.656 44.1016 367.776 44.3177 368.016 44.5C368.255 44.6771 368.609 44.8151 369.078 44.9141C369.547 45.0078 370.122 45.0547 370.805 45.0547C371.477 45.0547 372.049 45.0078 372.523 44.9141C372.997 44.8151 373.354 44.6771 373.594 44.5C373.833 44.3177 373.953 44.1016 373.953 43.8516C373.953 43.5859 373.833 43.3646 373.594 43.1875C373.354 43.0104 373 42.875 372.531 42.7812C372.062 42.6875 371.487 42.6406 370.805 42.6406ZM371.172 33.9219C371.172 34.6406 370.943 35.2969 370.484 35.8906C370.031 36.4792 369.383 36.9661 368.539 37.3516C367.701 37.737 366.719 37.987 365.594 38.1016L365.008 36.7344C365.94 36.6406 366.755 36.4557 367.453 36.1797C368.156 35.9036 368.695 35.5677 369.07 35.1719C369.445 34.7708 369.633 34.3542 369.633 33.9219V33.5312H371.172V33.9219ZM371.984 33.9219C371.984 34.3542 372.169 34.7708 372.539 35.1719C372.914 35.5677 373.456 35.9036 374.164 36.1797C374.872 36.4557 375.701 36.6406 376.648 36.7344L376.031 38.1016C374.922 37.987 373.943 37.737 373.094 37.3516C372.245 36.9661 371.589 36.4792 371.125 35.8906C370.661 35.2969 370.43 34.6406 370.43 33.9219V33.5312H371.984V33.9219ZM376.094 34.2734H365.555V32.8906H376.094V34.2734Z" fill="white"/>
<rect x="24" y="84" width="26.8889" height="2" fill="#E0E0E0"/>
<circle cx="57.8887" cy="85" r="6" fill="white" stroke="#E0E0E0" stroke-width="2"/>
<rect x="64.8887" y="84" width="26.8889" height="2" fill="#E0E0E0"/>
<circle cx="98.7778" cy="85" r="6" fill="white" stroke="#E0E0E0" stroke-width="2"/>
<rect x="105.778" y="84" width="26.8889" height="2" fill="#E0E0E0"/>
<circle cx="139.667" cy="85" r="6" fill="white" stroke="#E0E0E0" stroke-width="2"/>
<rect x="146.667" y="84" width="26.8889" height="2" fill="#E0E0E0"/>
<circle cx="180.556" cy="85" r="6" fill="white" stroke="#E0E0E0" stroke-width="2"/>
<rect x="187.556" y="84" width="26.8889" height="2" fill="#E0E0E0"/>
<circle cx="221.444" cy="85" r="6" fill="white" stroke="#E0E0E0" stroke-width="2"/>
<rect x="228.444" y="84" width="26.8889" height="2" fill="#E0E0E0"/>
<circle cx="262.333" cy="85" r="6" fill="white" stroke="#E0E0E0" stroke-width="2"/>
<rect x="269.333" y="84" width="26.8889" height="2" fill="#E0E0E0"/>
<circle cx="303.222" cy="85" r="6" fill="white" stroke="#E0E0E0" stroke-width="2"/>
<rect x="310.222" y="84" width="26.8889" height="2" fill="#E0E0E0"/>
<circle cx="344.111" cy="85" r="6" fill="#FF4141" stroke="#D61C1C" stroke-width="2"/>
<rect x="351.111" y="84" width="26.8889" height="2" fill="#E0E0E0"/>
<path d="M319.938 129.109H318.203V126.805H319.938V129.109ZM326.164 132.375H324.445V118.266H326.164V132.375ZM315.312 128.469C316.969 128.458 318.464 128.424 319.797 128.367C321.13 128.31 322.404 128.203 323.617 128.047L323.734 129.344C322.359 129.573 320.94 129.724 319.477 129.797C318.018 129.87 316.43 129.906 314.711 129.906L314.469 128.469H315.312ZM323.359 121.273H314.766V119.898H323.359V121.273ZM319.055 121.914C319.742 121.914 320.349 122.026 320.875 122.25C321.406 122.469 321.818 122.779 322.109 123.18C322.406 123.576 322.555 124.034 322.555 124.555C322.555 125.076 322.406 125.534 322.109 125.93C321.818 126.32 321.406 126.628 320.875 126.852C320.349 127.07 319.742 127.18 319.055 127.18C318.378 127.18 317.776 127.07 317.25 126.852C316.724 126.633 316.315 126.326 316.023 125.93C315.732 125.534 315.586 125.076 315.586 124.555C315.586 124.034 315.732 123.576 316.023 123.18C316.315 122.779 316.724 122.469 317.25 122.25C317.776 122.026 318.378 121.914 319.055 121.914ZM319.055 123.242C318.701 123.242 318.385 123.294 318.109 123.398C317.833 123.503 317.617 123.654 317.461 123.852C317.305 124.049 317.227 124.284 317.227 124.555C317.227 124.82 317.305 125.052 317.461 125.25C317.617 125.443 317.833 125.591 318.109 125.695C318.385 125.794 318.701 125.844 319.055 125.844C319.419 125.844 319.74 125.794 320.016 125.695C320.297 125.596 320.513 125.448 320.664 125.25C320.815 125.052 320.891 124.82 320.891 124.555C320.891 124.284 320.815 124.049 320.664 123.852C320.513 123.654 320.297 123.503 320.016 123.398C319.74 123.294 319.419 123.242 319.055 123.242ZM319.945 120.672H318.203V118.312H319.945V120.672ZM335.289 119.445C335.289 120.331 335.044 121.151 334.555 121.906C334.065 122.656 333.378 123.284 332.492 123.789C331.607 124.289 330.602 124.628 329.477 124.805L328.789 123.398C329.758 123.279 330.62 123.018 331.375 122.617C332.135 122.211 332.724 121.732 333.141 121.18C333.557 120.622 333.766 120.044 333.766 119.445V118.719H335.289V119.445ZM335.586 119.445C335.586 120.039 335.797 120.617 336.219 121.18C336.641 121.737 337.232 122.216 337.992 122.617C338.753 123.018 339.617 123.279 340.586 123.398L339.898 124.805C338.768 124.628 337.76 124.286 336.875 123.781C335.995 123.276 335.307 122.648 334.812 121.898C334.318 121.143 334.07 120.326 334.07 119.445V118.719H335.586V119.445ZM335.492 132.375H333.781V127.125H335.492V132.375ZM341.102 127.461H328.242V126.031H341.102V127.461ZM351.039 126.188H349.297V124.039H351.039V126.188ZM350.141 118.875C350.823 118.875 351.43 118.995 351.961 119.234C352.497 119.469 352.917 119.802 353.219 120.234C353.526 120.661 353.68 121.156 353.68 121.719C353.68 122.266 353.526 122.755 353.219 123.188C352.917 123.615 352.497 123.948 351.961 124.188C351.43 124.427 350.823 124.547 350.141 124.547C349.458 124.547 348.846 124.427 348.305 124.188C347.768 123.948 347.352 123.615 347.055 123.188C346.758 122.755 346.609 122.266 346.609 121.719C346.609 121.161 346.758 120.667 347.055 120.234C347.352 119.802 347.768 119.469 348.305 119.234C348.846 118.995 349.458 118.875 350.141 118.875ZM350.141 120.195C349.771 120.195 349.44 120.258 349.148 120.383C348.857 120.508 348.63 120.685 348.469 120.914C348.312 121.143 348.234 121.411 348.234 121.719C348.234 122.021 348.312 122.284 348.469 122.508C348.63 122.732 348.857 122.906 349.148 123.031C349.44 123.156 349.771 123.221 350.141 123.227C350.516 123.221 350.846 123.156 351.133 123.031C351.424 122.906 351.648 122.732 351.805 122.508C351.966 122.284 352.047 122.021 352.047 121.719C352.047 121.406 351.966 121.135 351.805 120.906C351.648 120.672 351.424 120.495 351.133 120.375C350.846 120.255 350.516 120.195 350.141 120.195ZM357.07 129.055H355.328V118.281H357.07V129.055ZM358.977 124.289H356.43V122.836H358.977V124.289ZM357.562 132.102H347.773V130.688H357.562V132.102ZM349.523 131.32H347.773V128.117H349.523V131.32ZM345.844 125.734C347.406 125.74 348.922 125.711 350.391 125.648C351.859 125.586 353.229 125.461 354.5 125.273L354.625 126.547C353.328 126.781 351.971 126.938 350.555 127.016C349.143 127.089 347.638 127.125 346.039 127.125L345.844 125.734ZM364.812 129.898H363.117V126.5H364.812V129.898ZM369.344 129.883H367.641V126.484H369.344V129.883ZM372.617 130.75H359.711V129.32H372.617V130.75ZM371.078 123.766H362.969V126.328H361.234V122.375H369.367V120.633H361.211V119.227H371.078V123.766ZM371.414 126.984H361.234V125.57H371.414V126.984Z" fill="#FF4141"/>
</svg>
