<svg width="402" height="166" viewBox="0 0 402 166" fill="none" xmlns="http://www.w3.org/2000/svg">
<path d="M30.9414 33.6758C30.9414 34.776 30.7428 35.8112 30.3457 36.7812C29.9486 37.7448 29.3691 38.5879 28.6074 39.3105C27.8522 40.0267 26.9473 40.5671 25.8926 40.9316L24.7695 39.2129C25.6875 38.9069 26.4753 38.4674 27.1328 37.8945C27.7969 37.3216 28.2949 36.6738 28.627 35.9512C28.9655 35.222 29.1348 34.4635 29.1348 33.6758V32.0352H30.9414V33.6758ZM31.332 33.6758C31.332 34.418 31.498 35.1341 31.8301 35.8242C32.1621 36.5078 32.6536 37.1198 33.3047 37.6602C33.9557 38.194 34.737 38.6009 35.6484 38.8809L34.5352 40.5898C33.4935 40.2513 32.5983 39.7402 31.8496 39.0566C31.1009 38.3665 30.5312 37.5625 30.1406 36.6445C29.75 35.7266 29.5547 34.737 29.5547 33.6758V32.0352H31.332V33.6758ZM35.0527 33.168H25.3359V31.4297H35.0527V33.168ZM39.3301 42.9141H37.1523V30.1016H39.3301V42.9141ZM39.8281 47.4062H27.6504V45.6289H39.8281V47.4062ZM29.8379 46.4883H27.6504V41.7324H29.8379V46.4883ZM57.0156 41.1758H54.9453V30.082H57.0156V41.1758ZM55.5117 36.3809H52.4551V34.6035H55.5117V36.3809ZM53.2266 40.5801H51.1953V30.4238H53.2266V40.5801ZM50.6094 33.7051H41.8301V31.9961H50.6094V33.7051ZM46.2441 34.418C46.9863 34.418 47.6471 34.5449 48.2266 34.7988C48.806 35.0462 49.2585 35.4043 49.584 35.873C49.9095 36.3353 50.0723 36.8691 50.0723 37.4746C50.0723 38.0736 49.9095 38.6009 49.584 39.0566C49.2585 39.5124 48.806 39.8672 48.2266 40.1211C47.6471 40.375 46.9863 40.502 46.2441 40.502C45.515 40.502 44.8607 40.375 44.2812 40.1211C43.7018 39.8672 43.2493 39.5124 42.9238 39.0566C42.6048 38.6009 42.4453 38.0736 42.4453 37.4746C42.4453 36.8691 42.6048 36.3353 42.9238 35.873C43.2493 35.4043 43.6986 35.0462 44.2715 34.7988C44.8509 34.5449 45.5085 34.418 46.2441 34.418ZM46.2441 35.9805C45.8796 35.9805 45.5573 36.0423 45.2773 36.166C44.9974 36.2832 44.776 36.4557 44.6133 36.6836C44.457 36.9049 44.3789 37.1686 44.3789 37.4746C44.3789 37.7676 44.457 38.028 44.6133 38.2559C44.776 38.4772 44.9974 38.6497 45.2773 38.7734C45.5573 38.8906 45.8796 38.9492 46.2441 38.9492C46.6087 38.9492 46.931 38.8906 47.2109 38.7734C47.4974 38.6497 47.7188 38.4772 47.875 38.2559C48.0312 38.028 48.1094 37.7676 48.1094 37.4746C48.1094 37.1686 48.0312 36.9049 47.875 36.6836C47.7188 36.4557 47.4974 36.2832 47.2109 36.166C46.931 36.0423 46.6087 35.9805 46.2441 35.9805ZM47.3086 33.1289H45.1504V30.2383H47.3086V33.1289ZM51.0586 41.4004C52.3216 41.4004 53.4056 41.5241 54.3105 41.7715C55.2155 42.0124 55.9056 42.3704 56.3809 42.8457C56.8626 43.321 57.1035 43.8971 57.1035 44.5742C57.1035 45.2318 56.8626 45.7949 56.3809 46.2637C55.9056 46.7389 55.2122 47.097 54.3008 47.3379C53.3893 47.5853 52.3086 47.709 51.0586 47.709C49.8021 47.709 48.7214 47.5853 47.8164 47.3379C46.9115 47.097 46.2181 46.7389 45.7363 46.2637C45.2546 45.7949 45.0137 45.2318 45.0137 44.5742C45.0137 43.8971 45.2546 43.321 45.7363 42.8457C46.2181 42.3704 46.9115 42.0124 47.8164 41.7715C48.7214 41.5241 49.8021 41.4004 51.0586 41.4004ZM51.0586 43.041C50.2188 43.0345 49.5091 43.0898 48.9297 43.207C48.3568 43.3177 47.9206 43.4902 47.6211 43.7246C47.3281 43.9525 47.1816 44.2357 47.1816 44.5742C47.1816 44.8932 47.3281 45.1667 47.6211 45.3945C47.9206 45.6159 48.36 45.7852 48.9395 45.9023C49.5189 46.013 50.2253 46.0684 51.0586 46.0684C51.8984 46.0684 52.6048 46.013 53.1777 45.9023C53.7507 45.7852 54.1868 45.6159 54.4863 45.3945C54.7858 45.1667 54.9355 44.8932 54.9355 44.5742C54.9355 44.2292 54.7858 43.9427 54.4863 43.7148C54.1868 43.487 53.7507 43.3177 53.1777 43.207C52.6048 43.0898 51.8984 43.0345 51.0586 43.041ZM69.8281 32.6895C69.8281 33.8548 69.6393 34.9421 69.2617 35.9512C68.8841 36.9603 68.3307 37.8392 67.6016 38.5879C66.8789 39.3301 65.9935 39.89 64.9453 40.2676L63.7734 38.5586C64.6979 38.2331 65.4792 37.7741 66.1172 37.1816C66.7617 36.5827 67.2435 35.8991 67.5625 35.1309C67.888 34.3561 68.0508 33.5423 68.0508 32.6895V31.0098H69.8281V32.6895ZM70.2188 32.8945C70.2188 33.6432 70.3783 34.3594 70.6973 35.043C71.0228 35.7266 71.4948 36.332 72.1133 36.8594C72.7383 37.3867 73.4902 37.7936 74.3691 38.0801L73.207 39.7695C72.2109 39.431 71.3548 38.9232 70.6387 38.2461C69.9225 37.5625 69.3789 36.7617 69.0078 35.8438C68.6432 34.9258 68.4609 33.9427 68.4609 32.8945V31.0098H70.2188V32.8945ZM77.8945 40.6387H75.7266V30.082H77.8945V40.6387ZM80.3652 36.1758H77.2793V34.3691H80.3652V36.1758ZM72.1523 41.0293C73.3633 41.0293 74.4115 41.1595 75.2969 41.4199C76.1888 41.6803 76.8724 42.0612 77.3477 42.5625C77.8229 43.0573 78.0605 43.6562 78.0605 44.3594C78.0605 45.0625 77.8229 45.6647 77.3477 46.166C76.8724 46.6738 76.1921 47.0579 75.3066 47.3184C74.4212 47.5788 73.3698 47.709 72.1523 47.709C70.9349 47.709 69.8737 47.5788 68.9688 47.3184C68.0703 47.0579 67.377 46.6738 66.8887 46.166C66.4069 45.6647 66.166 45.0625 66.166 44.3594C66.166 43.6562 66.4069 43.0573 66.8887 42.5625C67.377 42.0612 68.0703 41.6803 68.9688 41.4199C69.8737 41.1595 70.9349 41.0293 72.1523 41.0293ZM72.1523 42.7383C71.3516 42.7383 70.6647 42.8001 70.0918 42.9238C69.5254 43.0475 69.0924 43.2331 68.793 43.4805C68.5 43.7214 68.3535 44.0143 68.3535 44.3594C68.3535 44.7174 68.5 45.0202 68.793 45.2676C69.0924 45.5085 69.5221 45.6908 70.082 45.8145C70.6484 45.9382 71.3385 46.0033 72.1523 46.0098C72.9727 46.0033 73.6628 45.9382 74.2227 45.8145C74.7826 45.6908 75.2057 45.5085 75.4922 45.2676C75.7786 45.0202 75.9219 44.7174 75.9219 44.3594C75.9219 44.0078 75.7754 43.7116 75.4824 43.4707C75.196 43.2298 74.7695 43.0475 74.2031 42.9238C73.6367 42.8001 72.9531 42.7383 72.1523 42.7383ZM83.0898 41.7617C84.5938 41.7552 85.7949 41.7292 86.6934 41.6836C87.5918 41.6315 88.513 41.5306 89.457 41.3809L89.623 43.168C88.6595 43.3307 87.6992 43.4414 86.7422 43.5C85.7917 43.5521 84.5742 43.5781 83.0898 43.5781H81.8887V41.7617H83.0898ZM89.0078 33.7246H83.959V42.4844H81.8887V32.0059H89.0078V33.7246ZM88.6953 38.3145H83.3633V36.625H88.6953V38.3145ZM96.4883 47.7188H94.3984V30.082H96.4883V47.7188ZM95.1113 38.7637H91.9766V37.0156H95.1113V38.7637ZM92.582 46.8887H90.5215V30.3848H92.582V46.8887Z" fill="black"/>
<path d="M338.805 36.8203H341.102V33.5547H342.719V42.9766H337.164V33.5547H338.805V36.8203ZM341.102 41.5781V38.2031H338.805V41.5781H341.102ZM348.914 46.375H347.242V32.2656H348.914V46.375ZM347.789 39.1484H345.273V37.7344H347.789V39.1484ZM345.742 45.7109H344.102V32.5078H345.742V45.7109ZM353.859 41.9453H360.125V40.3125H361.852V46.2109H352.148V40.3125H353.859V41.9453ZM360.125 44.8047V43.2812H353.859V44.8047H360.125ZM361.227 34.2656H352.148V32.8594H361.227V34.2656ZM363.469 39.2734H350.562V37.8828H363.469V39.2734ZM361.883 33.9609C361.883 34.7474 361.859 35.4505 361.812 36.0703C361.766 36.6901 361.646 37.4089 361.453 38.2266L359.719 38.3125C359.849 37.7292 359.945 37.1875 360.008 36.6875C360.07 36.1823 360.109 35.737 360.125 35.3516C360.141 34.9661 360.148 34.5026 360.148 33.9609V32.8594H361.883V33.9609ZM371.664 41.8203H369.953V39.3281H371.664V41.8203ZM377.25 40.1406H364.391V38.7422H377.25V40.1406ZM370.805 41.3203C371.826 41.3203 372.701 41.4193 373.43 41.6172C374.164 41.8099 374.724 42.0964 375.109 42.4766C375.5 42.8568 375.695 43.3151 375.695 43.8516C375.695 44.3828 375.5 44.8359 375.109 45.2109C374.724 45.5859 374.164 45.8724 373.43 46.0703C372.701 46.2682 371.826 46.3672 370.805 46.3672C369.779 46.3672 368.898 46.2682 368.164 46.0703C367.43 45.8724 366.865 45.5859 366.469 45.2109C366.078 44.8359 365.883 44.3828 365.883 43.8516C365.883 43.3151 366.078 42.8568 366.469 42.4766C366.859 42.0964 367.422 41.8099 368.156 41.6172C368.896 41.4193 369.779 41.3203 370.805 41.3203ZM370.805 42.6406C370.117 42.6406 369.539 42.6875 369.07 42.7812C368.607 42.875 368.255 43.0104 368.016 43.1875C367.776 43.3646 367.656 43.5859 367.656 43.8516C367.656 44.1016 367.776 44.3177 368.016 44.5C368.255 44.6771 368.609 44.8151 369.078 44.9141C369.547 45.0078 370.122 45.0547 370.805 45.0547C371.477 45.0547 372.049 45.0078 372.523 44.9141C372.997 44.8151 373.354 44.6771 373.594 44.5C373.833 44.3177 373.953 44.1016 373.953 43.8516C373.953 43.5859 373.833 43.3646 373.594 43.1875C373.354 43.0104 373 42.875 372.531 42.7812C372.062 42.6875 371.487 42.6406 370.805 42.6406ZM371.172 33.9219C371.172 34.6406 370.943 35.2969 370.484 35.8906C370.031 36.4792 369.383 36.9661 368.539 37.3516C367.701 37.737 366.719 37.987 365.594 38.1016L365.008 36.7344C365.94 36.6406 366.755 36.4557 367.453 36.1797C368.156 35.9036 368.695 35.5677 369.07 35.1719C369.445 34.7708 369.633 34.3542 369.633 33.9219V33.5312H371.172V33.9219ZM371.984 33.9219C371.984 34.3542 372.169 34.7708 372.539 35.1719C372.914 35.5677 373.456 35.9036 374.164 36.1797C374.872 36.4557 375.701 36.6406 376.648 36.7344L376.031 38.1016C374.922 37.987 373.943 37.737 373.094 37.3516C372.245 36.9661 371.589 36.4792 371.125 35.8906C370.661 35.2969 370.43 34.6406 370.43 33.9219V33.5312H371.984V33.9219ZM376.094 34.2734H365.555V32.8906H376.094V34.2734Z" fill="white"/>
<rect x="24" y="84" width="26.8889" height="2" fill="#E0E0E0"/>
<circle cx="57.8887" cy="85" r="6" fill="white" stroke="#E0E0E0" stroke-width="2"/>
<rect x="64.8887" y="84" width="26.8889" height="2" fill="#E0E0E0"/>
<circle cx="98.7778" cy="85" r="6" fill="white" stroke="#E0E0E0" stroke-width="2"/>
<rect x="105.778" y="84" width="26.8889" height="2" fill="#E0E0E0"/>
<circle cx="139.667" cy="85" r="6" fill="#FF4141" stroke="#D61C1C" stroke-width="2"/>
<rect x="146.667" y="84" width="26.8889" height="2" fill="#E0E0E0"/>
<circle cx="180.556" cy="85" r="6" fill="white" stroke="#E0E0E0" stroke-width="2"/>
<rect x="187.556" y="84" width="26.8889" height="2" fill="#E0E0E0"/>
<circle cx="221.444" cy="85" r="6" fill="white" stroke="#E0E0E0" stroke-width="2"/>
<rect x="228.444" y="84" width="26.8889" height="2" fill="#E0E0E0"/>
<circle cx="262.333" cy="85" r="6" fill="white" stroke="#E0E0E0" stroke-width="2"/>
<rect x="269.333" y="84" width="26.8889" height="2" fill="#E0E0E0"/>
<circle cx="303.222" cy="85" r="6" fill="white" stroke="#E0E0E0" stroke-width="2"/>
<rect x="310.222" y="84" width="26.8889" height="2" fill="#E0E0E0"/>
<circle cx="344.111" cy="85" r="6" fill="white" stroke="#E0E0E0" stroke-width="2"/>
<rect x="351.111" y="84" width="26.8889" height="2" fill="#E0E0E0"/>
<path d="M121.305 122.82H123.602V119.555H125.219V128.977H119.664V119.555H121.305V122.82ZM123.602 127.578V124.203H121.305V127.578H123.602ZM131.414 132.375H129.742V118.266H131.414V132.375ZM130.289 125.148H127.773V123.734H130.289V125.148ZM128.242 131.711H126.602V118.508H128.242V131.711ZM136.359 127.945H142.625V126.312H144.352V132.211H134.648V126.312H136.359V127.945ZM142.625 130.805V129.281H136.359V130.805H142.625ZM143.727 120.266H134.648V118.859H143.727V120.266ZM145.969 125.273H133.062V123.883H145.969V125.273ZM144.383 119.961C144.383 120.747 144.359 121.451 144.312 122.07C144.266 122.69 144.146 123.409 143.953 124.227L142.219 124.312C142.349 123.729 142.445 123.188 142.508 122.688C142.57 122.182 142.609 121.737 142.625 121.352C142.641 120.966 142.648 120.503 142.648 119.961V118.859H144.383V119.961ZM154.164 127.82H152.453V125.328H154.164V127.82ZM159.75 126.141H146.891V124.742H159.75V126.141ZM153.305 127.32C154.326 127.32 155.201 127.419 155.93 127.617C156.664 127.81 157.224 128.096 157.609 128.477C158 128.857 158.195 129.315 158.195 129.852C158.195 130.383 158 130.836 157.609 131.211C157.224 131.586 156.664 131.872 155.93 132.07C155.201 132.268 154.326 132.367 153.305 132.367C152.279 132.367 151.398 132.268 150.664 132.07C149.93 131.872 149.365 131.586 148.969 131.211C148.578 130.836 148.383 130.383 148.383 129.852C148.383 129.315 148.578 128.857 148.969 128.477C149.359 128.096 149.922 127.81 150.656 127.617C151.396 127.419 152.279 127.32 153.305 127.32ZM153.305 128.641C152.617 128.641 152.039 128.688 151.57 128.781C151.107 128.875 150.755 129.01 150.516 129.188C150.276 129.365 150.156 129.586 150.156 129.852C150.156 130.102 150.276 130.318 150.516 130.5C150.755 130.677 151.109 130.815 151.578 130.914C152.047 131.008 152.622 131.055 153.305 131.055C153.977 131.055 154.549 131.008 155.023 130.914C155.497 130.815 155.854 130.677 156.094 130.5C156.333 130.318 156.453 130.102 156.453 129.852C156.453 129.586 156.333 129.365 156.094 129.188C155.854 129.01 155.5 128.875 155.031 128.781C154.562 128.688 153.987 128.641 153.305 128.641ZM153.672 119.922C153.672 120.641 153.443 121.297 152.984 121.891C152.531 122.479 151.883 122.966 151.039 123.352C150.201 123.737 149.219 123.987 148.094 124.102L147.508 122.734C148.44 122.641 149.255 122.456 149.953 122.18C150.656 121.904 151.195 121.568 151.57 121.172C151.945 120.771 152.133 120.354 152.133 119.922V119.531H153.672V119.922ZM154.484 119.922C154.484 120.354 154.669 120.771 155.039 121.172C155.414 121.568 155.956 121.904 156.664 122.18C157.372 122.456 158.201 122.641 159.148 122.734L158.531 124.102C157.422 123.987 156.443 123.737 155.594 123.352C154.745 122.966 154.089 122.479 153.625 121.891C153.161 121.297 152.93 120.641 152.93 119.922V119.531H154.484V119.922ZM158.594 120.273H148.055V118.891H158.594V120.273Z" fill="#FF4141"/>
</svg>
