<svg width="402" height="88" viewBox="0 0 402 88" fill="none" xmlns="http://www.w3.org/2000/svg">
<path d="M36.5078 51.2656H35.3047V37.375H36.5078V51.2656ZM35.6641 44.0781H32.9453V43.0312H35.6641V44.0781ZM33.3047 50.5469H32.1484V37.6875H33.3047V50.5469ZM26.5703 47.0781H25.3516V39.0781H26.5703V47.0781ZM26.2109 46.5781C27.0547 46.5781 27.8698 46.5443 28.6562 46.4766C29.4427 46.4089 30.263 46.2917 31.1172 46.125L31.2734 47.2188C30.3568 47.375 29.4896 47.4896 28.6719 47.5625C27.8542 47.6354 27.0339 47.6719 26.2109 47.6719H25.3516V46.5781H26.2109ZM49.2266 51.2656H48.0078V37.375H49.2266V51.2656ZM51.4766 44.0625H48.9141V43.0312H51.4766V44.0625ZM45.6328 38.875C45.6328 40.2292 45.4115 41.5052 44.9688 42.7031C44.526 43.901 43.8307 45.0052 42.8828 46.0156C41.9349 47.026 40.7266 47.8958 39.2578 48.625L38.5703 47.6562C39.862 47.0104 40.9427 46.2552 41.8125 45.3906C42.6823 44.526 43.3359 43.5651 43.7734 42.5078C44.2109 41.4505 44.4297 40.3073 44.4297 39.0781V38.875H45.6328ZM45.0547 39.9062H39.2109V38.875H45.0547V39.9062ZM69.0234 46.8125H56.3047V45.7969H69.0234V46.8125ZM63.2422 51.2656H62.0391V46.0781H63.2422V51.2656ZM67.5859 44.3594H58.0078V43.3594H67.5859V44.3594ZM67.4297 39.0312H59.2266V43.6562H58.0078V38.0312H67.4297V39.0312ZM67.1016 41.6406H58.8672V40.6562H67.1016V41.6406ZM74.6172 41.6406C74.6172 42.5781 74.4375 43.5156 74.0781 44.4531C73.7188 45.3906 73.237 46.224 72.6328 46.9531C72.0286 47.6823 71.3724 48.2292 70.6641 48.5938L69.9141 47.625C70.5807 47.3021 71.1979 46.8177 71.7656 46.1719C72.3333 45.526 72.7891 44.8021 73.1328 44C73.4766 43.1979 73.6484 42.4115 73.6484 41.6406V39.3438H74.6172V41.6406ZM74.8516 41.6406C74.8516 42.3698 75.0104 43.1094 75.3281 43.8594C75.6458 44.6094 76.0807 45.2891 76.6328 45.8984C77.1849 46.5078 77.7943 46.9688 78.4609 47.2812L77.7578 48.25C77.0391 47.8958 76.3828 47.3724 75.7891 46.6797C75.1953 45.987 74.7266 45.1979 74.3828 44.3125C74.0391 43.4271 73.8672 42.5365 73.8672 41.6406V39.3438H74.8516V41.6406ZM77.9766 39.8281H70.4141V38.8125H77.9766V39.8281ZM80.8984 51.2656H79.6797V37.375H80.8984V51.2656ZM83.2266 44.0469H80.6172V43H83.2266V44.0469ZM94.8359 47.7969H93.6172V37.3906H94.8359V47.7969ZM96.9297 43H94.4453V41.9688H96.9297V43ZM92.2891 40.0938H84.0078V39.0938H92.2891V40.0938ZM88.1484 40.8594C88.8047 40.8594 89.3854 40.9661 89.8906 41.1797C90.3958 41.3932 90.7891 41.6953 91.0703 42.0859C91.3516 42.4766 91.4922 42.9323 91.4922 43.4531C91.4922 43.9635 91.3516 44.4115 91.0703 44.7969C90.7891 45.1823 90.3958 45.4818 89.8906 45.6953C89.3854 45.9089 88.8047 46.0156 88.1484 46.0156C87.4922 46.0156 86.9089 45.9089 86.3984 45.6953C85.888 45.4818 85.4948 45.1823 85.2188 44.7969C84.9427 44.4115 84.8047 43.9635 84.8047 43.4531C84.8047 42.9323 84.9427 42.4766 85.2188 42.0859C85.4948 41.6953 85.888 41.3932 86.3984 41.1797C86.9089 40.9661 87.4922 40.8594 88.1484 40.8594ZM88.1484 41.8281C87.7214 41.8281 87.3411 41.8932 87.0078 42.0234C86.6745 42.1536 86.4193 42.3438 86.2422 42.5938C86.0651 42.8438 85.9766 43.1302 85.9766 43.4531C85.9766 43.776 86.0651 44.0573 86.2422 44.2969C86.4193 44.5365 86.6745 44.7214 87.0078 44.8516C87.3411 44.9818 87.7214 45.0469 88.1484 45.0469C88.5755 45.0469 88.9557 44.9818 89.2891 44.8516C89.6224 44.7214 89.8802 44.5365 90.0625 44.2969C90.2448 44.0573 90.3359 43.776 90.3359 43.4531C90.3359 43.1302 90.2448 42.8438 90.0625 42.5938C89.8802 42.3438 89.6224 42.1536 89.2891 42.0234C88.9557 41.8932 88.5755 41.8281 88.1484 41.8281ZM88.7578 39.6094H87.5391V37.3906H88.7578V39.6094ZM95.4766 50.9688H86.1484V49.9375H95.4766V50.9688ZM87.3516 50.3594H86.1484V46.9688H87.3516V50.3594ZM113.305 44.5938H112.07V37.375H113.305V44.5938ZM113.305 48.5781H105.461V50.7031H104.258V47.6562H112.086V46.25H104.211V45.2656H113.305V48.5781ZM113.836 51.1094H104.258V50.1094H113.836V51.1094ZM109.961 39.3125H102.445V38.3281H109.961V39.3125ZM102.055 43.0781C103.544 43.0781 105.039 43.0469 106.539 42.9844C108.039 42.9219 109.409 42.8177 110.648 42.6719L110.711 43.5781C109.44 43.7656 108.062 43.8984 106.578 43.9766C105.094 44.0547 103.638 44.0938 102.211 44.0938L102.055 43.0781ZM105.023 43.5312H103.836V38.7812H105.023V43.5312ZM108.555 43.5312H107.367V38.7812H108.555V43.5312ZM128.352 45.5625H115.633V44.5469H128.352V45.5625ZM126.711 41H118.508V42.8438H117.289V40.0781H125.477V38.7031H117.242V37.7188H126.711V41ZM127.008 43.3438H117.289V42.3906H127.008V43.3438ZM126.711 51.0781H117.367V46.8281H126.711V51.0781ZM118.57 50.0781H125.508V47.8281H118.57V50.0781Z" fill="black"/>
<path d="M314.635 35H316.135V33.8C316.135 33.36 316.495 33 316.935 33H321.335C321.775 33 322.135 33.36 322.135 33.8V35H323.635C324.033 35 324.415 35.158 324.696 35.4393C324.977 35.7206 325.135 36.1022 325.135 36.5V37H333.135V52H325.135V52.5C325.135 52.8978 324.977 53.2794 324.696 53.5607C324.415 53.842 324.033 54 323.635 54H314.635C314.237 54 313.856 53.842 313.575 53.5607C313.293 53.2794 313.135 52.8978 313.135 52.5V36.5C313.135 36.1022 313.293 35.7206 313.575 35.4393C313.856 35.158 314.237 35 314.635 35ZM329.135 39V41H331.135V39H329.135ZM325.135 39V41H327.135V39H325.135ZM321.135 39V41H323.135V39H321.135ZM325.135 48V50H327.135V48H325.135ZM329.135 48V50H331.135V48H329.135ZM321.135 48V50H323.135V48H321.135Z" fill="#FF4141"/>
<path d="M346.19 48.3389L350.681 44.0146C351.173 43.5225 351.554 43.1211 351.824 42.8105C352.093 42.4941 352.298 42.1807 352.439 41.8701C352.58 41.5596 352.65 41.2314 352.65 40.8857C352.65 40.5049 352.553 40.168 352.36 39.875C352.167 39.582 351.906 39.3564 351.578 39.1982C351.25 39.0342 350.875 38.9521 350.453 38.9521C350.031 38.9521 349.656 39.04 349.328 39.2158C349 39.3857 348.748 39.6318 348.572 39.9541C348.396 40.2764 348.308 40.6484 348.308 41.0703H346.137C346.137 40.2793 346.322 39.585 346.691 38.9873C347.06 38.3838 347.573 37.918 348.229 37.5898C348.891 37.2617 349.644 37.0977 350.488 37.0977C351.343 37.0977 352.099 37.2559 352.755 37.5723C353.412 37.8887 353.921 38.3252 354.285 38.8818C354.654 39.4385 354.838 40.0713 354.838 40.7803C354.838 41.2725 354.745 41.7471 354.557 42.2041C354.37 42.6611 354.047 43.165 353.59 43.7158C353.139 44.2666 352.492 44.9404 351.648 45.7373L349.38 47.9873V48.084H355.032V50H346.199L346.19 48.3389ZM361.729 50.1758C360.709 50.1758 359.833 49.9209 359.101 49.4111C358.375 48.9014 357.815 48.1572 357.422 47.1787C357.036 46.1943 356.842 45.0137 356.842 43.6367C356.842 42.2598 357.036 41.082 357.422 40.1035C357.815 39.125 358.377 38.3809 359.11 37.8711C359.842 37.3555 360.715 37.0977 361.729 37.0977C362.743 37.0977 363.616 37.3555 364.348 37.8711C365.086 38.3809 365.649 39.1279 366.036 40.1123C366.422 41.0908 366.616 42.2656 366.616 43.6367C366.616 45.0195 366.422 46.2002 366.036 47.1787C365.655 48.1572 365.095 48.9014 364.357 49.4111C363.625 49.9209 362.749 50.1758 361.729 50.1758ZM361.729 48.251C362.262 48.251 362.722 48.0781 363.109 47.7324C363.496 47.3809 363.792 46.8623 363.997 46.1768C364.208 45.4854 364.31 44.6387 364.304 43.6367C364.304 42.6406 364.199 41.7969 363.988 41.1055C363.783 40.4082 363.487 39.8838 363.1 39.5322C362.719 39.1748 362.262 38.9961 361.729 38.9961C361.196 38.9961 360.736 39.1748 360.349 39.5322C359.968 39.8838 359.672 40.4082 359.461 41.1055C359.25 41.7969 359.145 42.6406 359.145 43.6367C359.145 44.6387 359.248 45.4854 359.453 46.1768C359.664 46.8623 359.962 47.3809 360.349 47.7324C360.736 48.0781 361.196 48.251 361.729 48.251ZM373.225 50.1758C372.206 50.1758 371.33 49.9209 370.597 49.4111C369.871 48.9014 369.311 48.1572 368.918 47.1787C368.532 46.1943 368.338 45.0137 368.338 43.6367C368.338 42.2598 368.532 41.082 368.918 40.1035C369.311 39.125 369.874 38.3809 370.606 37.8711C371.338 37.3555 372.211 37.0977 373.225 37.0977C374.239 37.0977 375.112 37.3555 375.844 37.8711C376.583 38.3809 377.145 39.1279 377.532 40.1123C377.918 41.0908 378.112 42.2656 378.112 43.6367C378.112 45.0195 377.918 46.2002 377.532 47.1787C377.151 48.1572 376.591 48.9014 375.853 49.4111C375.121 49.9209 374.245 50.1758 373.225 50.1758ZM373.225 48.251C373.758 48.251 374.218 48.0781 374.605 47.7324C374.992 47.3809 375.288 46.8623 375.493 46.1768C375.704 45.4854 375.806 44.6387 375.8 43.6367C375.8 42.6406 375.695 41.7969 375.484 41.1055C375.279 40.4082 374.983 39.8838 374.596 39.5322C374.215 39.1748 373.758 38.9961 373.225 38.9961C372.692 38.9961 372.232 39.1748 371.845 39.5322C371.464 39.8838 371.168 40.4082 370.958 41.1055C370.747 41.7969 370.641 42.6406 370.641 43.6367C370.641 44.6387 370.744 45.4854 370.949 46.1768C371.16 46.8623 371.458 47.3809 371.845 47.7324C372.232 48.0781 372.692 48.251 373.225 48.251Z" fill="#121212"/>
</svg>
