<svg width="402" height="88" viewBox="0 0 402 88" fill="none" xmlns="http://www.w3.org/2000/svg">
<path d="M36.5078 51.2656H35.3047V37.375H36.5078V51.2656ZM35.6641 44.0781H32.9453V43.0312H35.6641V44.0781ZM33.3047 50.5469H32.1484V37.6875H33.3047V50.5469ZM26.5703 47.0781H25.3516V39.0781H26.5703V47.0781ZM26.2109 46.5781C27.0547 46.5781 27.8698 46.5443 28.6562 46.4766C29.4427 46.4089 30.263 46.2917 31.1172 46.125L31.2734 47.2188C30.3568 47.375 29.4896 47.4896 28.6719 47.5625C27.8542 47.6354 27.0339 47.6719 26.2109 47.6719H25.3516V46.5781H26.2109ZM49.2266 51.2656H48.0078V37.375H49.2266V51.2656ZM51.4766 44.0625H48.9141V43.0312H51.4766V44.0625ZM45.6328 38.875C45.6328 40.2292 45.4115 41.5052 44.9688 42.7031C44.526 43.901 43.8307 45.0052 42.8828 46.0156C41.9349 47.026 40.7266 47.8958 39.2578 48.625L38.5703 47.6562C39.862 47.0104 40.9427 46.2552 41.8125 45.3906C42.6823 44.526 43.3359 43.5651 43.7734 42.5078C44.2109 41.4505 44.4297 40.3073 44.4297 39.0781V38.875H45.6328ZM45.0547 39.9062H39.2109V38.875H45.0547V39.9062ZM69.0234 46.8125H56.3047V45.7969H69.0234V46.8125ZM63.2422 51.2656H62.0391V46.0781H63.2422V51.2656ZM67.5859 44.3594H58.0078V43.3594H67.5859V44.3594ZM67.4297 39.0312H59.2266V43.6562H58.0078V38.0312H67.4297V39.0312ZM67.1016 41.6406H58.8672V40.6562H67.1016V41.6406ZM74.6172 41.6406C74.6172 42.5781 74.4375 43.5156 74.0781 44.4531C73.7188 45.3906 73.237 46.224 72.6328 46.9531C72.0286 47.6823 71.3724 48.2292 70.6641 48.5938L69.9141 47.625C70.5807 47.3021 71.1979 46.8177 71.7656 46.1719C72.3333 45.526 72.7891 44.8021 73.1328 44C73.4766 43.1979 73.6484 42.4115 73.6484 41.6406V39.3438H74.6172V41.6406ZM74.8516 41.6406C74.8516 42.3698 75.0104 43.1094 75.3281 43.8594C75.6458 44.6094 76.0807 45.2891 76.6328 45.8984C77.1849 46.5078 77.7943 46.9688 78.4609 47.2812L77.7578 48.25C77.0391 47.8958 76.3828 47.3724 75.7891 46.6797C75.1953 45.987 74.7266 45.1979 74.3828 44.3125C74.0391 43.4271 73.8672 42.5365 73.8672 41.6406V39.3438H74.8516V41.6406ZM77.9766 39.8281H70.4141V38.8125H77.9766V39.8281ZM80.8984 51.2656H79.6797V37.375H80.8984V51.2656ZM83.2266 44.0469H80.6172V43H83.2266V44.0469ZM94.8359 47.7969H93.6172V37.3906H94.8359V47.7969ZM96.9297 43H94.4453V41.9688H96.9297V43ZM92.2891 40.0938H84.0078V39.0938H92.2891V40.0938ZM88.1484 40.8594C88.8047 40.8594 89.3854 40.9661 89.8906 41.1797C90.3958 41.3932 90.7891 41.6953 91.0703 42.0859C91.3516 42.4766 91.4922 42.9323 91.4922 43.4531C91.4922 43.9635 91.3516 44.4115 91.0703 44.7969C90.7891 45.1823 90.3958 45.4818 89.8906 45.6953C89.3854 45.9089 88.8047 46.0156 88.1484 46.0156C87.4922 46.0156 86.9089 45.9089 86.3984 45.6953C85.888 45.4818 85.4948 45.1823 85.2188 44.7969C84.9427 44.4115 84.8047 43.9635 84.8047 43.4531C84.8047 42.9323 84.9427 42.4766 85.2188 42.0859C85.4948 41.6953 85.888 41.3932 86.3984 41.1797C86.9089 40.9661 87.4922 40.8594 88.1484 40.8594ZM88.1484 41.8281C87.7214 41.8281 87.3411 41.8932 87.0078 42.0234C86.6745 42.1536 86.4193 42.3438 86.2422 42.5938C86.0651 42.8438 85.9766 43.1302 85.9766 43.4531C85.9766 43.776 86.0651 44.0573 86.2422 44.2969C86.4193 44.5365 86.6745 44.7214 87.0078 44.8516C87.3411 44.9818 87.7214 45.0469 88.1484 45.0469C88.5755 45.0469 88.9557 44.9818 89.2891 44.8516C89.6224 44.7214 89.8802 44.5365 90.0625 44.2969C90.2448 44.0573 90.3359 43.776 90.3359 43.4531C90.3359 43.1302 90.2448 42.8438 90.0625 42.5938C89.8802 42.3438 89.6224 42.1536 89.2891 42.0234C88.9557 41.8932 88.5755 41.8281 88.1484 41.8281ZM88.7578 39.6094H87.5391V37.3906H88.7578V39.6094ZM95.4766 50.9688H86.1484V49.9375H95.4766V50.9688ZM87.3516 50.3594H86.1484V46.9688H87.3516V50.3594ZM113.305 44.5938H112.07V37.375H113.305V44.5938ZM113.305 48.5781H105.461V50.7031H104.258V47.6562H112.086V46.25H104.211V45.2656H113.305V48.5781ZM113.836 51.1094H104.258V50.1094H113.836V51.1094ZM109.961 39.3125H102.445V38.3281H109.961V39.3125ZM102.055 43.0781C103.544 43.0781 105.039 43.0469 106.539 42.9844C108.039 42.9219 109.409 42.8177 110.648 42.6719L110.711 43.5781C109.44 43.7656 108.062 43.8984 106.578 43.9766C105.094 44.0547 103.638 44.0938 102.211 44.0938L102.055 43.0781ZM105.023 43.5312H103.836V38.7812H105.023V43.5312ZM108.555 43.5312H107.367V38.7812H108.555V43.5312ZM128.352 45.5625H115.633V44.5469H128.352V45.5625ZM126.711 41H118.508V42.8438H117.289V40.0781H125.477V38.7031H117.242V37.7188H126.711V41ZM127.008 43.3438H117.289V42.3906H127.008V43.3438ZM126.711 51.0781H117.367V46.8281H126.711V51.0781ZM118.57 50.0781H125.508V47.8281H118.57V50.0781Z" fill="black"/>
<path d="M314.635 35H316.135V33.8C316.135 33.36 316.495 33 316.935 33H321.335C321.775 33 322.135 33.36 322.135 33.8V35H323.635C324.033 35 324.415 35.158 324.696 35.4393C324.977 35.7206 325.135 36.1022 325.135 36.5V37H333.135V52H325.135V52.5C325.135 52.8978 324.977 53.2794 324.696 53.5607C324.415 53.842 324.033 54 323.635 54H314.635C314.237 54 313.856 53.842 313.575 53.5607C313.293 53.2794 313.135 52.8978 313.135 52.5V36.5C313.135 36.1022 313.293 35.7206 313.575 35.4393C313.856 35.158 314.237 35 314.635 35ZM329.135 39V41H331.135V39H329.135ZM325.135 39V41H327.135V39H325.135ZM321.135 39V41H323.135V39H321.135ZM325.135 48V50H327.135V48H325.135ZM329.135 48V50H331.135V48H329.135ZM321.135 48V50H323.135V48H321.135Z" fill="#FF4141"/>
<path d="M351.358 50H349.055V39.5059H348.985L346.005 41.4131V39.3125L349.161 37.2734H351.358V50ZM359.145 50.1758C358.125 50.1758 357.25 49.9209 356.517 49.4111C355.791 48.9014 355.231 48.1572 354.838 47.1787C354.452 46.1943 354.258 45.0137 354.258 43.6367C354.258 42.2598 354.452 41.082 354.838 40.1035C355.231 39.125 355.793 38.3809 356.526 37.8711C357.258 37.3555 358.131 37.0977 359.145 37.0977C360.159 37.0977 361.032 37.3555 361.764 37.8711C362.502 38.3809 363.065 39.1279 363.452 40.1123C363.838 41.0908 364.032 42.2656 364.032 43.6367C364.032 45.0195 363.838 46.2002 363.452 47.1787C363.071 48.1572 362.511 48.9014 361.773 49.4111C361.041 49.9209 360.165 50.1758 359.145 50.1758ZM359.145 48.251C359.678 48.251 360.138 48.0781 360.525 47.7324C360.912 47.3809 361.208 46.8623 361.413 46.1768C361.624 45.4854 361.726 44.6387 361.72 43.6367C361.72 42.6406 361.615 41.7969 361.404 41.1055C361.199 40.4082 360.903 39.8838 360.516 39.5322C360.135 39.1748 359.678 38.9961 359.145 38.9961C358.612 38.9961 358.152 39.1748 357.765 39.5322C357.384 39.8838 357.088 40.4082 356.877 41.1055C356.667 41.7969 356.561 42.6406 356.561 43.6367C356.561 44.6387 356.664 45.4854 356.869 46.1768C357.08 46.8623 357.378 47.3809 357.765 47.7324C358.152 48.0781 358.612 48.251 359.145 48.251ZM370.641 50.1758C369.622 50.1758 368.746 49.9209 368.013 49.4111C367.287 48.9014 366.727 48.1572 366.334 47.1787C365.948 46.1943 365.754 45.0137 365.754 43.6367C365.754 42.2598 365.948 41.082 366.334 40.1035C366.727 39.125 367.29 38.3809 368.022 37.8711C368.754 37.3555 369.627 37.0977 370.641 37.0977C371.655 37.0977 372.528 37.3555 373.26 37.8711C373.999 38.3809 374.561 39.1279 374.948 40.1123C375.334 41.0908 375.528 42.2656 375.528 43.6367C375.528 45.0195 375.334 46.2002 374.948 47.1787C374.567 48.1572 374.007 48.9014 373.269 49.4111C372.537 49.9209 371.661 50.1758 370.641 50.1758ZM370.641 48.251C371.174 48.251 371.634 48.0781 372.021 47.7324C372.408 47.3809 372.704 46.8623 372.909 46.1768C373.12 45.4854 373.222 44.6387 373.216 43.6367C373.216 42.6406 373.111 41.7969 372.9 41.1055C372.695 40.4082 372.399 39.8838 372.012 39.5322C371.631 39.1748 371.174 38.9961 370.641 38.9961C370.108 38.9961 369.648 39.1748 369.261 39.5322C368.88 39.8838 368.584 40.4082 368.374 41.1055C368.163 41.7969 368.057 42.6406 368.057 43.6367C368.057 44.6387 368.16 45.4854 368.365 46.1768C368.576 46.8623 368.875 47.3809 369.261 47.7324C369.648 48.0781 370.108 48.251 370.641 48.251Z" fill="#121212"/>
</svg>
