<svg width="18" height="18" viewBox="0 0 18 18" fill="none" xmlns="http://www.w3.org/2000/svg">
<path fill-rule="evenodd" clip-rule="evenodd" d="M12.9376 7.87495C12.9376 8.53976 12.8066 9.19807 12.5522 9.81228C12.2978 10.4265 11.9249 10.9846 11.4548 11.4547C10.9847 11.9248 10.4266 12.2977 9.8124 12.5521C9.19819 12.8065 8.53989 12.9374 7.87507 12.9374C7.21025 12.9374 6.55194 12.8065 5.93773 12.5521C5.32352 12.2977 4.76544 11.9248 4.29534 11.4547C3.82524 10.9846 3.45234 10.4265 3.19793 9.81228C2.94351 9.19807 2.81257 8.53976 2.81257 7.87495C2.81257 6.53229 3.34594 5.24462 4.29534 4.29522C5.24474 3.34581 6.53241 2.81245 7.87507 2.81245C9.21773 2.81245 10.5054 3.34581 11.4548 4.29522C12.4042 5.24462 12.9376 6.53229 12.9376 7.87495ZM12.0151 13.2074C10.6587 14.2604 8.95211 14.7569 7.24259 14.5959C5.53308 14.4348 3.94921 13.6283 2.81341 12.3405C1.67762 11.0528 1.07529 9.38053 1.12904 7.66429C1.1828 5.94805 1.8886 4.3168 3.10277 3.10264C4.31693 1.88848 5.94817 1.18268 7.66441 1.12892C9.38065 1.07517 11.0529 1.67749 12.3406 2.81329C13.6284 3.94908 14.4349 5.53296 14.596 7.24247C14.757 8.95198 14.2605 10.6586 13.2076 12.0149L16.3463 15.1537C16.4292 15.2309 16.4957 15.3241 16.5418 15.4276C16.5879 15.5311 16.6127 15.6428 16.6147 15.7561C16.6167 15.8694 16.5959 15.9819 16.5535 16.087C16.511 16.1921 16.4479 16.2875 16.3677 16.3676C16.2876 16.4477 16.1922 16.5109 16.0871 16.5533C15.9821 16.5958 15.8695 16.6166 15.7562 16.6146C15.6429 16.6126 15.5312 16.5878 15.4277 16.5417C15.3242 16.4956 15.2311 16.4291 15.1538 16.3462L12.0151 13.2074Z" fill="#C8C8C8"/>
</svg>
